# xmcd CD database file
#
# Track frame offsets:
#	150
#	12712
#	24610
#	35412
#	54505
#	67732
#	82150
#	93982
#	106580
#	120360
#
# Disc length: 1790 seconds
#
# Revision: 2
# Processed by: cddbd v1.4PL0 Copyright (c) Steve Scherf et al.
# Submitted via: jetAudio 5
#
DISCID=7406fc0a
DTITLE=Andy Williams - Moon River
DYEAR=1900
DGENRE=
TTITLE0=Moon River
TTITLE1=Canadian Sunset
TTITLE2=Can't get used to losing you
TTITLE3=You're the best thing that ever happened to me
TTITLE4=Dear Heart
TTITLE5=Love Story
TTITLE6=You're nobody till somebody loves you
TTITLE7=Days of wine and roses
TTITLE8=Love Theme From "The Godfather"(Speak Softly Love)
TTITLE9=It might as well be spring
EXTD=
EXTT0=
EXTT1=
EXTT2=
EXTT3=
EXTT4=
EXTT5=
EXTT6=
EXTT7=
EXTT8=
EXTT9=
PLAYORDER=
